<svg xmlns="http://www.w3.org/2000/svg" viewBox="0 0 200 240" fill="none">
  <defs>
    <linearGradient id="fg" x1="0%" y1="0%" x2="100%" y2="100%">
      <stop offset="0%" stop-color="#5FE3B5" />
      <stop offset="100%" stop-color="#7EE5C2" />
    </linearGradient>
  </defs>
  <rect width="200" height="240" rx="40" fill="#040810" />
  <path d="M 100 30 L 175 56 L 175 130 Q 175 175 100 210 Q 25 175 25 130 L 25 56 Z"
        stroke="url(#fg)" stroke-width="6" stroke-linejoin="round" fill="rgba(95, 227, 181, 0.06)" />
  <g stroke="url(#fg)" stroke-width="3" stroke-linecap="round">
    <line x1="40"  y1="80"  x2="160" y2="80" />
    <line x1="40"  y1="120" x2="160" y2="120" />
    <line x1="50"  y1="160" x2="150" y2="160" />
    <line x1="100" y1="40"  x2="100" y2="195" />
    <line x1="40"  y1="80"  x2="100" y2="120" />
    <line x1="160" y1="80"  x2="100" y2="120" />
    <line x1="100" y1="120" x2="50"  y2="160" />
    <line x1="100" y1="120" x2="150" y2="160" />
  </g>
  <circle cx="100" cy="80"  r="8"  fill="#FFB347" />
  <circle cx="100" cy="120" r="11" fill="#FFB347" />
  <circle cx="100" cy="160" r="8"  fill="#FFB347" />
  <circle cx="40"  cy="80"  r="6"  fill="#5FE3B5" />
  <circle cx="160" cy="80"  r="6"  fill="#5FE3B5" />
  <circle cx="50"  cy="160" r="6"  fill="#5FE3B5" />
  <circle cx="150" cy="160" r="6"  fill="#5FE3B5" />
</svg>
